G04 #@! TF.FileFunction,Soldermask,Top*
%FSLAX46Y46*%
G04 Gerber Fmt 4.6, Leading zero omitted, Abs format (unit mm)*
G04 Created by KiCad (PCBNEW 4.0.2-stable) date 2017-02-07 10:52:45 AM*
%MOMM*%
G01*
G04 APERTURE LIST*
%ADD10C,0.100000*%
%ADD11R,1.500000X0.400000*%
%ADD12O,1.727200X2.032000*%
%ADD13R,0.812800X1.143000*%
%ADD14R,1.143000X0.812800*%
%ADD15R,1.397000X1.143000*%
%ADD16R,1.600200X2.999740*%
%ADD17R,1.198880X1.198880*%
%ADD18R,2.397760X2.397760*%
%ADD19R,0.609600X0.762000*%
%ADD20O,2.500000X4.000000*%
%ADD21O,2.000000X2.500000*%
%ADD22O,3.500000X1.500000*%
%ADD23R,1.500000X1.500000*%
%ADD24R,1.143000X1.397000*%
%ADD25O,2.200000X1.400000*%
%ADD26O,2.250000X1.400000*%
%ADD27R,1.450000X0.450000*%
%ADD28R,1.500000X0.600000*%
%ADD29R,3.800000X2.000000*%
%ADD30R,1.500000X2.000000*%
%ADD31R,1.060000X0.650000*%
%ADD32R,1.500000X0.450000*%
%ADD33O,2.800000X3.500000*%
%ADD34C,1.750000*%
%ADD35O,0.800000X1.500000*%
%ADD36R,1.600000X1.500000*%
%ADD37R,1.200000X1.200000*%
%ADD38C,2.500000*%
%ADD39R,1.100000X0.400000*%
%ADD40C,1.500000*%
%ADD41R,1.700000X1.700000*%
%ADD42O,1.700000X1.700000*%
%ADD43R,2.800000X1.600000*%
G04 APERTURE END LIST*
D10*
D11*
X135298000Y-101840000D03*
X135298000Y-102490000D03*
X135298000Y-103140000D03*
X135298000Y-103790000D03*
X135298000Y-104440000D03*
X135298000Y-105090000D03*
X135298000Y-105740000D03*
X135298000Y-106390000D03*
X141198000Y-106390000D03*
X141198000Y-105740000D03*
X141198000Y-105090000D03*
X141198000Y-104440000D03*
X141198000Y-103790000D03*
X141198000Y-103140000D03*
X141198000Y-102490000D03*
X141198000Y-101840000D03*
D12*
X138938000Y-123825000D03*
X141478000Y-123825000D03*
X144018000Y-123825000D03*
X146558000Y-123825000D03*
X149098000Y-123825000D03*
X151638000Y-123825000D03*
X154178000Y-123825000D03*
X156718000Y-123825000D03*
X161798000Y-123825000D03*
X164338000Y-123825000D03*
X166878000Y-123825000D03*
X169418000Y-123825000D03*
X171958000Y-123825000D03*
X174498000Y-123825000D03*
X152654000Y-75565000D03*
X150114000Y-75565000D03*
X147574000Y-75565000D03*
X145034000Y-75565000D03*
X142494000Y-75565000D03*
X139954000Y-75565000D03*
X137414000Y-75565000D03*
X134874000Y-75565000D03*
X132334000Y-75565000D03*
X129794000Y-75565000D03*
X174498000Y-75565000D03*
X171958000Y-75565000D03*
X169418000Y-75565000D03*
X166878000Y-75565000D03*
X164338000Y-75565000D03*
X161798000Y-75565000D03*
X159258000Y-75565000D03*
X156718000Y-75565000D03*
D13*
X148147100Y-82865000D03*
X149848900Y-82865000D03*
D14*
X138748000Y-86514100D03*
X138748000Y-88215900D03*
D13*
X146348900Y-86615000D03*
X144647100Y-86615000D03*
D14*
X136998000Y-89514100D03*
X136998000Y-91215900D03*
D15*
X148498000Y-89035500D03*
X148498000Y-91194500D03*
D14*
X128398000Y-86915900D03*
X128398000Y-85214100D03*
X151548000Y-88464100D03*
X151548000Y-90165900D03*
X119798000Y-86315900D03*
X119798000Y-84614100D03*
X161298000Y-89064100D03*
X161298000Y-90765900D03*
D13*
X142647100Y-100115000D03*
X144348900Y-100115000D03*
X172397100Y-99865000D03*
X174098900Y-99865000D03*
D14*
X123748000Y-88264100D03*
X123748000Y-89965900D03*
D13*
X128348900Y-81615000D03*
X126647100Y-81615000D03*
X159147100Y-86865000D03*
X160848900Y-86865000D03*
D14*
X156998000Y-85764100D03*
X156998000Y-87465900D03*
D16*
X180998000Y-110064640D03*
X180998000Y-105665360D03*
X180748000Y-99564640D03*
X180748000Y-95165360D03*
D14*
X139998000Y-113715900D03*
X139998000Y-112014100D03*
X139998000Y-115264100D03*
X139998000Y-116965900D03*
X149998000Y-115264100D03*
X149998000Y-116965900D03*
X149998000Y-113715900D03*
X149998000Y-112014100D03*
X126498000Y-113715900D03*
X126498000Y-112014100D03*
X126498000Y-115264100D03*
X126498000Y-116965900D03*
X136498000Y-115264100D03*
X136498000Y-116965900D03*
X136498000Y-113715900D03*
X136498000Y-112014100D03*
X166998000Y-113465900D03*
X166998000Y-111764100D03*
X166998000Y-115014100D03*
X166998000Y-116715900D03*
X176998000Y-115014100D03*
X176998000Y-116715900D03*
X176998000Y-113465900D03*
X176998000Y-111764100D03*
X147998000Y-103465900D03*
X147998000Y-101764100D03*
X147998000Y-105014100D03*
X147998000Y-106715900D03*
X157998000Y-105014100D03*
X157998000Y-106715900D03*
X157998000Y-103465900D03*
X157998000Y-101764100D03*
X161998000Y-80465900D03*
X161998000Y-78764100D03*
D17*
X180748000Y-116565980D03*
X180748000Y-118664020D03*
X182748000Y-116565980D03*
X182748000Y-118664020D03*
X184748000Y-116565980D03*
X184748000Y-118664020D03*
X186998000Y-116565980D03*
X186998000Y-118664020D03*
D18*
X186248000Y-105415360D03*
X186248000Y-109814640D03*
X186248000Y-94915360D03*
X186248000Y-99314640D03*
D19*
X169492600Y-90365000D03*
X167003400Y-90365000D03*
D20*
X112798000Y-105865000D03*
D21*
X122198000Y-105865000D03*
D22*
X117498000Y-100965000D03*
X117498000Y-109165000D03*
D20*
X112798000Y-93615000D03*
D21*
X122198000Y-93615000D03*
D22*
X117498000Y-88715000D03*
X117498000Y-96915000D03*
D20*
X121948000Y-76115000D03*
D21*
X112548000Y-76115000D03*
D22*
X117248000Y-81015000D03*
X117248000Y-72815000D03*
D23*
X166978000Y-87937000D03*
X169518000Y-87937000D03*
X172058000Y-87937000D03*
X164438000Y-87937000D03*
X164438000Y-78793000D03*
X166978000Y-78793000D03*
X169518000Y-78793000D03*
X172058000Y-78793000D03*
D13*
X173147100Y-103115000D03*
X174848900Y-103115000D03*
X173147100Y-105115000D03*
X174848900Y-105115000D03*
X173147100Y-107115000D03*
X174848900Y-107115000D03*
X139647100Y-100115000D03*
X141348900Y-100115000D03*
X169397100Y-99865000D03*
X171098900Y-99865000D03*
X154147100Y-120365000D03*
X155848900Y-120365000D03*
D14*
X135248000Y-88215900D03*
X135248000Y-86514100D03*
X135248000Y-91215900D03*
X135248000Y-89514100D03*
X180748000Y-114965900D03*
X180748000Y-113264100D03*
X182748000Y-114965900D03*
X182748000Y-113264100D03*
X184748000Y-114965900D03*
X184748000Y-113264100D03*
X186998000Y-114965900D03*
X186998000Y-113264100D03*
X136998000Y-86514100D03*
X136998000Y-88215900D03*
D13*
X154297100Y-92915000D03*
X155998900Y-92915000D03*
X159148900Y-92915000D03*
X157447100Y-92915000D03*
D14*
X130598000Y-85514100D03*
X130598000Y-87215900D03*
X130598000Y-82714100D03*
X130598000Y-84415900D03*
X154248000Y-95764100D03*
X154248000Y-97465900D03*
X158748000Y-95764100D03*
X158748000Y-97465900D03*
X126398000Y-89915900D03*
X126398000Y-88214100D03*
D13*
X116547100Y-84565000D03*
X118248900Y-84565000D03*
D14*
X128398000Y-89915900D03*
X128398000Y-88214100D03*
D13*
X116547100Y-86265000D03*
X118248900Y-86265000D03*
D14*
X160248000Y-81715900D03*
X160248000Y-80014100D03*
D24*
X190418500Y-110115000D03*
X192577500Y-110115000D03*
X190418500Y-94365000D03*
X192577500Y-94365000D03*
D13*
X171147100Y-90615000D03*
X172848900Y-90615000D03*
D14*
X161998000Y-83465900D03*
X161998000Y-81764100D03*
D25*
X151998000Y-78615000D03*
X151998000Y-83115000D03*
D26*
X158498000Y-78615000D03*
X158498000Y-83115000D03*
D27*
X142048000Y-112415000D03*
X142048000Y-113065000D03*
X142048000Y-113715000D03*
X142048000Y-114365000D03*
X142048000Y-115015000D03*
X142048000Y-115665000D03*
X142048000Y-116315000D03*
X147948000Y-116315000D03*
X147948000Y-115665000D03*
X147948000Y-115015000D03*
X147948000Y-114365000D03*
X147948000Y-113715000D03*
X147948000Y-113065000D03*
X147948000Y-112415000D03*
X128548000Y-112415000D03*
X128548000Y-113065000D03*
X128548000Y-113715000D03*
X128548000Y-114365000D03*
X128548000Y-115015000D03*
X128548000Y-115665000D03*
X128548000Y-116315000D03*
X134448000Y-116315000D03*
X134448000Y-115665000D03*
X134448000Y-115015000D03*
X134448000Y-114365000D03*
X134448000Y-113715000D03*
X134448000Y-113065000D03*
X134448000Y-112415000D03*
D28*
X161448000Y-118675000D03*
X161448000Y-117405000D03*
X161448000Y-116135000D03*
X161448000Y-114865000D03*
X161448000Y-113595000D03*
X161448000Y-112325000D03*
X161448000Y-111055000D03*
X156048000Y-111055000D03*
X156048000Y-112325000D03*
X156048000Y-113595000D03*
X156048000Y-114865000D03*
X156048000Y-116135000D03*
X156048000Y-117405000D03*
X156048000Y-118675000D03*
D29*
X143248000Y-88965000D03*
D30*
X143248000Y-95265000D03*
X145548000Y-95265000D03*
X140948000Y-95265000D03*
D31*
X132798000Y-90715000D03*
X132798000Y-89765000D03*
X132798000Y-88815000D03*
X130598000Y-88815000D03*
X130598000Y-90715000D03*
D32*
X144948000Y-84890000D03*
X144948000Y-84240000D03*
X144948000Y-83590000D03*
X144948000Y-82940000D03*
X144948000Y-82290000D03*
X144948000Y-81640000D03*
X144948000Y-80990000D03*
X144948000Y-80340000D03*
X139048000Y-80340000D03*
X139048000Y-80990000D03*
X139048000Y-81640000D03*
X139048000Y-82290000D03*
X139048000Y-82940000D03*
X139048000Y-83590000D03*
X139048000Y-84240000D03*
X139048000Y-84890000D03*
D11*
X164048000Y-101840000D03*
X164048000Y-102490000D03*
X164048000Y-103140000D03*
X164048000Y-103790000D03*
X164048000Y-104440000D03*
X164048000Y-105090000D03*
X164048000Y-105740000D03*
X164048000Y-106390000D03*
X169948000Y-106390000D03*
X169948000Y-105740000D03*
X169948000Y-105090000D03*
X169948000Y-104440000D03*
X169948000Y-103790000D03*
X169948000Y-103140000D03*
X169948000Y-102490000D03*
X169948000Y-101840000D03*
D27*
X169048000Y-112165000D03*
X169048000Y-112815000D03*
X169048000Y-113465000D03*
X169048000Y-114115000D03*
X169048000Y-114765000D03*
X169048000Y-115415000D03*
X169048000Y-116065000D03*
X174948000Y-116065000D03*
X174948000Y-115415000D03*
X174948000Y-114765000D03*
X174948000Y-114115000D03*
X174948000Y-113465000D03*
X174948000Y-112815000D03*
X174948000Y-112165000D03*
X150048000Y-102165000D03*
X150048000Y-102815000D03*
X150048000Y-103465000D03*
X150048000Y-104115000D03*
X150048000Y-104765000D03*
X150048000Y-105415000D03*
X150048000Y-106065000D03*
X155948000Y-106065000D03*
X155948000Y-105415000D03*
X155948000Y-104765000D03*
X155948000Y-104115000D03*
X155948000Y-103465000D03*
X155948000Y-102815000D03*
X155948000Y-102165000D03*
D33*
X122298000Y-117115000D03*
X112698000Y-117115000D03*
D34*
X119998000Y-124615000D03*
X117498000Y-124615000D03*
X114998000Y-124615000D03*
D35*
X122298000Y-115215000D03*
X122298000Y-119015000D03*
X112698000Y-115215000D03*
X112698000Y-119015000D03*
D36*
X151548000Y-95765000D03*
D37*
X152548000Y-92515000D03*
X150548000Y-92515000D03*
D36*
X161798000Y-92715000D03*
D37*
X160798000Y-95965000D03*
X162798000Y-95965000D03*
D38*
X181248000Y-79115000D03*
X181248000Y-90115000D03*
X175748000Y-84615000D03*
X185748000Y-84615000D03*
X177358000Y-80725000D03*
X177358000Y-88505000D03*
D39*
X126498000Y-85590000D03*
X126498000Y-84940000D03*
X126498000Y-84290000D03*
X126498000Y-83640000D03*
X122198000Y-83640000D03*
X122198000Y-84290000D03*
X122198000Y-84940000D03*
X122198000Y-85590000D03*
X154898000Y-88940000D03*
X154898000Y-89590000D03*
X154898000Y-90240000D03*
X154898000Y-90890000D03*
X159198000Y-90890000D03*
X159198000Y-90240000D03*
X159198000Y-89590000D03*
X159198000Y-88940000D03*
D40*
X135248000Y-84865000D03*
X132998000Y-85615000D03*
X148748000Y-95865000D03*
X164748000Y-95865000D03*
X139998000Y-118865000D03*
X142498000Y-118865000D03*
X147498000Y-118865000D03*
X149998000Y-118865000D03*
X126498000Y-118865000D03*
X128998000Y-118865000D03*
X134248000Y-118865000D03*
X136498000Y-118865000D03*
X166998000Y-118865000D03*
X169498000Y-118865000D03*
X175248000Y-118865000D03*
X177748000Y-118865000D03*
X147998000Y-108615000D03*
X150498000Y-108615000D03*
X155998000Y-108615000D03*
X153498000Y-108615000D03*
D41*
X190248000Y-97365000D03*
D42*
X192788000Y-97365000D03*
X190248000Y-99905000D03*
X192788000Y-99905000D03*
X190248000Y-102445000D03*
X192788000Y-102445000D03*
X190248000Y-104985000D03*
X192788000Y-104985000D03*
X190248000Y-107525000D03*
X192788000Y-107525000D03*
D40*
X132248000Y-78365000D03*
D43*
X130248000Y-99615000D03*
M02*
