M48
INCH,TZ
T1C0.016
T2C0.020
T3C0.033
T4C0.039
T5C0.040
T6C0.047
T7C0.055
T8C0.087
%
G90
G05
T1
X48031Y-34002
X49409Y-46049
X49802Y-32663
X49802Y-43726
X50865Y-32152
X50983Y-35774
X51089Y-45001
X52322Y-36079
X52361Y-37348
X52411Y-45080
X53247Y-42270
X53273Y-46177
X53662Y-41367
X53739Y-43746
X53838Y-32526
X53936Y-36364
X54133Y-42270
X55117Y-43746
X55235Y-32388
X55314Y-33116
X55511Y-31640
X55511Y-36856
X55633Y-46177
X56102Y-40104
X56377Y-41719
X56377Y-42073
X56378Y-41401
X56397Y-34100
X56401Y-45035
X56495Y-31935
X57184Y-35970
X57184Y-39415
X57381Y-36856
X57676Y-39415
X57730Y-44996
X58267Y-38431
X58267Y-39711
X58306Y-33018
X58464Y-36463
X58723Y-36759
X59047Y-43835
X59487Y-46049
X59606Y-40970
X60890Y-40904
X60924Y-38923
X60983Y-43687
X60983Y-45734
X61456Y-35774
X62007Y-43746
X62007Y-35872
X62007Y-38923
X62204Y-42663
X62539Y-32152
X62676Y-34750
X63139Y-42663
X63188Y-38923
X63385Y-40498
X63582Y-43441
X63779Y-41600
X63877Y-34199
X63877Y-42191
X63976Y-41846
X64212Y-43402
X64566Y-42368
X64772Y-43093
X67125Y-44898
X67401Y-40104
X67519Y-41384
X67568Y-41797
X67568Y-42152
X68405Y-44927
X70472Y-37447
X70472Y-37841
X70472Y-38234
X72342Y-43746
X74054Y-46719
T3
X49802Y-46797
X50787Y-46797
X52066Y-30852
X52361Y-33707
X52854Y-46797
X53247Y-33411
X53739Y-46797
X55117Y-46797
X56102Y-46797
X58070Y-46797
X58267Y-42762
X58562Y-37742
X59054Y-46797
X59251Y-42762
X60432Y-42762
X61417Y-42762
X64861Y-37742
X65747Y-46797
X66731Y-46797
X68995Y-46797
X69980Y-46797
T4
X45275Y-49061
X46259Y-49061
X47243Y-49061
X59842Y-30951
X59842Y-32722
X62401Y-30951
X62401Y-32722
X74901Y-38333
X74901Y-39333
X74901Y-40333
X74901Y-41333
X74901Y-42333
X75901Y-38333
X75901Y-39333
X75901Y-40333
X75901Y-41333
X75901Y-42333
T5
X51100Y-29750
X52100Y-29750
X53100Y-29750
X54100Y-29750
X54700Y-48750
X55100Y-29750
X55700Y-48750
X56100Y-29750
X56700Y-48750
X57100Y-29750
X57700Y-48750
X58100Y-29750
X58700Y-48750
X59100Y-29750
X59700Y-48750
X60100Y-29750
X60700Y-48750
X61700Y-29750
X61700Y-48750
X62700Y-29750
X63700Y-29750
X63700Y-48750
X64700Y-29750
X64700Y-48750
X65700Y-29750
X65700Y-48750
X66700Y-29750
X66700Y-48750
X67700Y-29750
X67700Y-48750
X68700Y-29750
X68700Y-48750
T6
X51279Y-39219
T7
X69192Y-33313
X69826Y-31781
X69826Y-34844
X71357Y-31148
X71357Y-35478
X73129Y-33313
T8
X44369Y-46108
X48149Y-46108
T2
X46554Y-28667G85X45767Y-28667
G05
X46554Y-31896G85X45767Y-31896
G05
X45865Y-34927G85X46653Y-34927
G05
X45865Y-38156G85X46653Y-38156
G05
X45865Y-39750G85X46653Y-39750
G05
X45865Y-42978G85X46653Y-42978
G05
T4
X44310Y-30065G85X44310Y-29868
G05
X44409Y-36561G85X44409Y-37152
G05
X44409Y-41384G85X44409Y-41974
G05
X48011Y-30262G85X48011Y-29671
G05
X48109Y-36758G85X48109Y-36955
G05
X48109Y-41581G85X48109Y-41778
G05
T0
M30
