G04 #@! TF.FileFunction,Soldermask,Bot*
%FSLAX46Y46*%
G04 Gerber Fmt 4.6, Leading zero omitted, Abs format (unit mm)*
G04 Created by KiCad (PCBNEW 4.0.2-stable) date 2017-02-07 10:52:45 AM*
%MOMM*%
G01*
G04 APERTURE LIST*
%ADD10C,0.100000*%
%ADD11O,1.727200X2.032000*%
%ADD12R,1.143000X0.812800*%
%ADD13R,0.812800X1.143000*%
%ADD14O,2.500000X4.000000*%
%ADD15O,2.000000X2.500000*%
%ADD16O,3.500000X1.500000*%
%ADD17O,2.200000X1.400000*%
%ADD18O,2.250000X1.400000*%
%ADD19O,2.800000X3.500000*%
%ADD20C,1.750000*%
%ADD21C,2.500000*%
%ADD22C,1.500000*%
%ADD23R,1.700000X1.700000*%
%ADD24O,1.700000X1.700000*%
%ADD25R,2.800000X1.600000*%
G04 APERTURE END LIST*
D10*
D11*
X138938000Y-123825000D03*
X141478000Y-123825000D03*
X144018000Y-123825000D03*
X146558000Y-123825000D03*
X149098000Y-123825000D03*
X151638000Y-123825000D03*
X154178000Y-123825000D03*
X156718000Y-123825000D03*
X161798000Y-123825000D03*
X164338000Y-123825000D03*
X166878000Y-123825000D03*
X169418000Y-123825000D03*
X171958000Y-123825000D03*
X174498000Y-123825000D03*
X152654000Y-75565000D03*
X150114000Y-75565000D03*
X147574000Y-75565000D03*
X145034000Y-75565000D03*
X142494000Y-75565000D03*
X139954000Y-75565000D03*
X137414000Y-75565000D03*
X134874000Y-75565000D03*
X132334000Y-75565000D03*
X129794000Y-75565000D03*
X174498000Y-75565000D03*
X171958000Y-75565000D03*
X169418000Y-75565000D03*
X166878000Y-75565000D03*
X164338000Y-75565000D03*
X161798000Y-75565000D03*
X159258000Y-75565000D03*
X156718000Y-75565000D03*
D12*
X165498000Y-112514100D03*
X165498000Y-114215900D03*
X167498000Y-114264100D03*
X167498000Y-115965900D03*
X149748000Y-103965900D03*
X149748000Y-102264100D03*
D13*
X154397100Y-101615000D03*
X156098900Y-101615000D03*
X129647100Y-109365000D03*
X131348900Y-109365000D03*
X126147100Y-109365000D03*
X127848900Y-109365000D03*
D14*
X112798000Y-105865000D03*
D15*
X122198000Y-105865000D03*
D16*
X117498000Y-100965000D03*
X117498000Y-109165000D03*
D14*
X112798000Y-93615000D03*
D15*
X122198000Y-93615000D03*
D16*
X117498000Y-88715000D03*
X117498000Y-96915000D03*
D14*
X121948000Y-76115000D03*
D15*
X112548000Y-76115000D03*
D16*
X117248000Y-81015000D03*
X117248000Y-72815000D03*
D12*
X124748000Y-97514100D03*
X124748000Y-99215900D03*
D17*
X151998000Y-78615000D03*
X151998000Y-83115000D03*
D18*
X158498000Y-78615000D03*
X158498000Y-83115000D03*
D19*
X122298000Y-117115000D03*
X112698000Y-117115000D03*
D20*
X119998000Y-124615000D03*
X117498000Y-124615000D03*
X114998000Y-124615000D03*
D21*
X181248000Y-79115000D03*
X181248000Y-90115000D03*
X175748000Y-84615000D03*
X185748000Y-84615000D03*
X177358000Y-80725000D03*
X177358000Y-88505000D03*
D22*
X135248000Y-84865000D03*
X132998000Y-85615000D03*
X148748000Y-95865000D03*
X164748000Y-95865000D03*
X139998000Y-118865000D03*
X142498000Y-118865000D03*
X147498000Y-118865000D03*
X149998000Y-118865000D03*
X126498000Y-118865000D03*
X128998000Y-118865000D03*
X134248000Y-118865000D03*
X136498000Y-118865000D03*
X166998000Y-118865000D03*
X169498000Y-118865000D03*
X175248000Y-118865000D03*
X177748000Y-118865000D03*
X147998000Y-108615000D03*
X150498000Y-108615000D03*
X155998000Y-108615000D03*
X153498000Y-108615000D03*
D23*
X190248000Y-97365000D03*
D24*
X192788000Y-97365000D03*
X190248000Y-99905000D03*
X192788000Y-99905000D03*
X190248000Y-102445000D03*
X192788000Y-102445000D03*
X190248000Y-104985000D03*
X192788000Y-104985000D03*
X190248000Y-107525000D03*
X192788000Y-107525000D03*
D22*
X132248000Y-78365000D03*
D25*
X130248000Y-99615000D03*
M02*
